<mxfile host="app.diagrams.net" agent="Mozilla/5.0 (Macintosh; Intel Mac OS X 10_15_7) AppleWebKit/537.36 (KHTML, like Gecko) Chrome/133.0.0.0 Safari/537.36" version="26.1.0">
  <diagram id="prtHgNgQTEPvFCAcTncT" name="Page-1">
    <mxGraphModel dx="2389" dy="891" grid="1" gridSize="10" guides="1" tooltips="1" connect="1" arrows="1" fold="1" page="1" pageScale="1" pageWidth="827" pageHeight="1169" math="0" shadow="0">
      <root>
        <mxCell id="0" />
        <mxCell id="1" parent="0" />
        <mxCell id="WytLN3imokRq79_IkQMb-1" value="Pool" style="swimlane;childLayout=stackLayout;resizeParent=1;resizeParentMax=0;startSize=20;html=1;" parent="1" vertex="1">
          <mxGeometry x="-120" y="10" width="820" height="2580" as="geometry" />
        </mxCell>
        <mxCell id="WytLN3imokRq79_IkQMb-2" value="&amp;nbsp; &amp;nbsp; &amp;nbsp; &amp;nbsp; &amp;nbsp; &amp;nbsp; &amp;nbsp; &amp;nbsp; &amp;nbsp; &amp;nbsp; &amp;nbsp; &amp;nbsp; &amp;nbsp; &amp;nbsp; &amp;nbsp; &amp;nbsp; &amp;nbsp; &amp;nbsp; &amp;nbsp; &amp;nbsp; &amp;nbsp;front-end" style="swimlane;startSize=20;html=1;align=left;" parent="WytLN3imokRq79_IkQMb-1" vertex="1">
          <mxGeometry y="20" width="670" height="2560" as="geometry">
            <mxRectangle y="20" width="40" height="2560" as="alternateBounds" />
          </mxGeometry>
        </mxCell>
        <mxCell id="WytLN3imokRq79_IkQMb-33" value="yes" style="text;html=1;align=center;verticalAlign=middle;whiteSpace=wrap;rounded=0;" parent="WytLN3imokRq79_IkQMb-2" vertex="1">
          <mxGeometry x="20" y="450" width="60" height="30" as="geometry" />
        </mxCell>
        <mxCell id="WytLN3imokRq79_IkQMb-3" value="backend" style="swimlane;startSize=20;html=1;" parent="WytLN3imokRq79_IkQMb-2" vertex="1">
          <mxGeometry x="330" width="340" height="2560" as="geometry" />
        </mxCell>
        <mxCell id="WytLN3imokRq79_IkQMb-9" value="Create Account" style="rounded=1;whiteSpace=wrap;html=1;" parent="WytLN3imokRq79_IkQMb-3" vertex="1">
          <mxGeometry x="90" y="125" width="120" height="60" as="geometry" />
        </mxCell>
        <mxCell id="WytLN3imokRq79_IkQMb-17" value="Change Password" style="rounded=1;whiteSpace=wrap;html=1;" parent="WytLN3imokRq79_IkQMb-3" vertex="1">
          <mxGeometry x="80" y="485" width="120" height="60" as="geometry" />
        </mxCell>
        <mxCell id="WytLN3imokRq79_IkQMb-60" value="increase/decrease ml" style="rounded=1;whiteSpace=wrap;html=1;" parent="WytLN3imokRq79_IkQMb-3" vertex="1">
          <mxGeometry x="90" y="775" width="140" height="60" as="geometry" />
        </mxCell>
        <mxCell id="WytLN3imokRq79_IkQMb-74" value="record ml" style="rounded=1;whiteSpace=wrap;html=1;" parent="WytLN3imokRq79_IkQMb-3" vertex="1">
          <mxGeometry x="90" y="960" width="140" height="60" as="geometry" />
        </mxCell>
        <mxCell id="WytLN3imokRq79_IkQMb-92" value="Display weekly statistics" style="rounded=1;whiteSpace=wrap;html=1;" parent="WytLN3imokRq79_IkQMb-3" vertex="1">
          <mxGeometry x="80" y="1380" width="120" height="60" as="geometry" />
        </mxCell>
        <mxCell id="WytLN3imokRq79_IkQMb-94" value="Display weekly statistics" style="rounded=1;whiteSpace=wrap;html=1;" parent="WytLN3imokRq79_IkQMb-3" vertex="1">
          <mxGeometry x="80" y="1450" width="120" height="60" as="geometry" />
        </mxCell>
        <mxCell id="WytLN3imokRq79_IkQMb-95" value="Display weekly statistics" style="rounded=1;whiteSpace=wrap;html=1;" parent="WytLN3imokRq79_IkQMb-3" vertex="1">
          <mxGeometry x="80" y="1520" width="120" height="60" as="geometry" />
        </mxCell>
        <mxCell id="WytLN3imokRq79_IkQMb-128" value="change user info?" style="rounded=1;whiteSpace=wrap;html=1;" parent="WytLN3imokRq79_IkQMb-3" vertex="1">
          <mxGeometry x="70" y="1885" width="120" height="60" as="geometry" />
        </mxCell>
        <mxCell id="WytLN3imokRq79_IkQMb-136" value="set hydration reminders" style="rounded=1;whiteSpace=wrap;html=1;" parent="WytLN3imokRq79_IkQMb-3" vertex="1">
          <mxGeometry x="70" y="1985" width="120" height="60" as="geometry" />
        </mxCell>
        <mxCell id="WytLN3imokRq79_IkQMb-152" value="display milestones" style="rounded=1;whiteSpace=wrap;html=1;" parent="WytLN3imokRq79_IkQMb-3" vertex="1">
          <mxGeometry x="70" y="2180" width="120" height="60" as="geometry" />
        </mxCell>
        <mxCell id="WytLN3imokRq79_IkQMb-166" value="logout" style="rounded=1;whiteSpace=wrap;html=1;" parent="WytLN3imokRq79_IkQMb-3" vertex="1">
          <mxGeometry x="70" y="2440" width="120" height="60" as="geometry" />
        </mxCell>
        <mxCell id="WytLN3imokRq79_IkQMb-10" value="" style="endArrow=classic;html=1;rounded=0;exitX=1;exitY=0.5;exitDx=0;exitDy=0;entryX=0;entryY=0.5;entryDx=0;entryDy=0;" parent="WytLN3imokRq79_IkQMb-2" source="WytLN3imokRq79_IkQMb-7" target="WytLN3imokRq79_IkQMb-9" edge="1">
          <mxGeometry width="50" height="50" relative="1" as="geometry">
            <mxPoint x="260" y="400" as="sourcePoint" />
            <mxPoint x="310" y="350" as="targetPoint" />
          </mxGeometry>
        </mxCell>
        <mxCell id="WytLN3imokRq79_IkQMb-23" value="" style="endArrow=classic;html=1;rounded=0;exitX=1;exitY=0.5;exitDx=0;exitDy=0;entryX=0;entryY=0.5;entryDx=0;entryDy=0;" parent="WytLN3imokRq79_IkQMb-2" source="WytLN3imokRq79_IkQMb-20" target="WytLN3imokRq79_IkQMb-17" edge="1">
          <mxGeometry width="50" height="50" relative="1" as="geometry">
            <mxPoint x="170" y="600" as="sourcePoint" />
            <mxPoint x="350" y="525" as="targetPoint" />
          </mxGeometry>
        </mxCell>
        <mxCell id="WytLN3imokRq79_IkQMb-59" value="" style="endArrow=classic;html=1;rounded=0;exitX=1;exitY=0.5;exitDx=0;exitDy=0;entryX=0;entryY=0.5;entryDx=0;entryDy=0;" parent="WytLN3imokRq79_IkQMb-2" source="WytLN3imokRq79_IkQMb-30" target="WytLN3imokRq79_IkQMb-60" edge="1">
          <mxGeometry width="50" height="50" relative="1" as="geometry">
            <mxPoint x="180" y="700" as="sourcePoint" />
            <mxPoint x="380" y="805" as="targetPoint" />
          </mxGeometry>
        </mxCell>
        <mxCell id="WytLN3imokRq79_IkQMb-66" value="" style="endArrow=classic;html=1;rounded=0;edgeStyle=orthogonalEdgeStyle;entryX=1;entryY=0.5;entryDx=0;entryDy=0;" parent="WytLN3imokRq79_IkQMb-2" source="WytLN3imokRq79_IkQMb-60" target="WytLN3imokRq79_IkQMb-68" edge="1">
          <mxGeometry width="50" height="50" relative="1" as="geometry">
            <mxPoint x="210" y="800" as="sourcePoint" />
            <mxPoint x="190" y="910" as="targetPoint" />
            <Array as="points">
              <mxPoint x="460" y="905" />
            </Array>
          </mxGeometry>
        </mxCell>
        <mxCell id="WytLN3imokRq79_IkQMb-76" value="" style="endArrow=classic;html=1;rounded=0;exitX=1;exitY=0.75;exitDx=0;exitDy=0;entryX=0;entryY=0.5;entryDx=0;entryDy=0;" parent="WytLN3imokRq79_IkQMb-2" source="WytLN3imokRq79_IkQMb-68" target="WytLN3imokRq79_IkQMb-74" edge="1">
          <mxGeometry width="50" height="50" relative="1" as="geometry">
            <mxPoint x="300" y="730" as="sourcePoint" />
            <mxPoint x="350" y="680" as="targetPoint" />
            <Array as="points">
              <mxPoint x="250" y="990" />
            </Array>
          </mxGeometry>
        </mxCell>
        <mxCell id="WytLN3imokRq79_IkQMb-80" value="" style="endArrow=classic;html=1;rounded=0;exitX=0.5;exitY=1;exitDx=0;exitDy=0;entryX=1;entryY=0.5;entryDx=0;entryDy=0;edgeStyle=orthogonalEdgeStyle;" parent="WytLN3imokRq79_IkQMb-2" source="WytLN3imokRq79_IkQMb-74" target="WytLN3imokRq79_IkQMb-69" edge="1">
          <mxGeometry width="50" height="50" relative="1" as="geometry">
            <mxPoint x="300" y="730" as="sourcePoint" />
            <mxPoint x="350" y="680" as="targetPoint" />
          </mxGeometry>
        </mxCell>
        <mxCell id="WytLN3imokRq79_IkQMb-93" value="" style="endArrow=classic;html=1;rounded=0;exitX=1;exitY=0.5;exitDx=0;exitDy=0;entryX=0;entryY=0.5;entryDx=0;entryDy=0;" parent="WytLN3imokRq79_IkQMb-2" source="WytLN3imokRq79_IkQMb-86" target="WytLN3imokRq79_IkQMb-92" edge="1">
          <mxGeometry width="50" height="50" relative="1" as="geometry">
            <mxPoint x="300" y="1020" as="sourcePoint" />
            <mxPoint x="350" y="970" as="targetPoint" />
            <Array as="points">
              <mxPoint x="270" y="1410" />
            </Array>
          </mxGeometry>
        </mxCell>
        <mxCell id="WytLN3imokRq79_IkQMb-97" value="" style="endArrow=classic;html=1;rounded=0;exitX=1;exitY=0.5;exitDx=0;exitDy=0;entryX=0;entryY=0.5;entryDx=0;entryDy=0;" parent="WytLN3imokRq79_IkQMb-2" source="WytLN3imokRq79_IkQMb-85" target="WytLN3imokRq79_IkQMb-94" edge="1">
          <mxGeometry width="50" height="50" relative="1" as="geometry">
            <mxPoint x="190" y="1359.33" as="sourcePoint" />
            <mxPoint x="370" y="1359.33" as="targetPoint" />
          </mxGeometry>
        </mxCell>
        <mxCell id="WytLN3imokRq79_IkQMb-98" value="" style="endArrow=classic;html=1;rounded=0;exitX=1;exitY=0.5;exitDx=0;exitDy=0;entryX=0;entryY=0.5;entryDx=0;entryDy=0;" parent="WytLN3imokRq79_IkQMb-2" source="WytLN3imokRq79_IkQMb-84" target="WytLN3imokRq79_IkQMb-95" edge="1">
          <mxGeometry width="50" height="50" relative="1" as="geometry">
            <mxPoint x="210" y="1310" as="sourcePoint" />
            <mxPoint x="390" y="1310" as="targetPoint" />
          </mxGeometry>
        </mxCell>
        <mxCell id="WytLN3imokRq79_IkQMb-121" value="no" style="text;html=1;align=center;verticalAlign=middle;whiteSpace=wrap;rounded=0;" parent="WytLN3imokRq79_IkQMb-2" vertex="1">
          <mxGeometry x="50" y="1180" width="60" height="30" as="geometry" />
        </mxCell>
        <mxCell id="WytLN3imokRq79_IkQMb-122" value="" style="endArrow=classic;html=1;rounded=0;exitX=0;exitY=0.5;exitDx=0;exitDy=0;entryX=0;entryY=0.75;entryDx=0;entryDy=0;edgeStyle=orthogonalEdgeStyle;" parent="WytLN3imokRq79_IkQMb-2" source="WytLN3imokRq79_IkQMb-28" target="WytLN3imokRq79_IkQMb-119" edge="1">
          <mxGeometry width="50" height="50" relative="1" as="geometry">
            <mxPoint x="180" y="1040" as="sourcePoint" />
            <mxPoint x="230" y="990" as="targetPoint" />
            <Array as="points">
              <mxPoint x="100" y="710" />
              <mxPoint x="40" y="710" />
              <mxPoint x="40" y="1717" />
              <mxPoint x="109" y="1717" />
            </Array>
          </mxGeometry>
        </mxCell>
        <mxCell id="WytLN3imokRq79_IkQMb-129" value="" style="endArrow=classic;html=1;rounded=0;exitX=1;exitY=0.5;exitDx=0;exitDy=0;entryX=0;entryY=0.5;entryDx=0;entryDy=0;" parent="WytLN3imokRq79_IkQMb-2" source="WytLN3imokRq79_IkQMb-126" target="WytLN3imokRq79_IkQMb-128" edge="1">
          <mxGeometry width="50" height="50" relative="1" as="geometry">
            <mxPoint x="340" y="1850" as="sourcePoint" />
            <mxPoint x="390" y="1800" as="targetPoint" />
          </mxGeometry>
        </mxCell>
        <mxCell id="WytLN3imokRq79_IkQMb-139" value="" style="endArrow=classic;html=1;rounded=0;exitX=1;exitY=0.5;exitDx=0;exitDy=0;entryX=0;entryY=0.5;entryDx=0;entryDy=0;" parent="WytLN3imokRq79_IkQMb-2" source="WytLN3imokRq79_IkQMb-134" target="WytLN3imokRq79_IkQMb-136" edge="1">
          <mxGeometry width="50" height="50" relative="1" as="geometry">
            <mxPoint x="340" y="1970" as="sourcePoint" />
            <mxPoint x="390" y="1920" as="targetPoint" />
          </mxGeometry>
        </mxCell>
        <mxCell id="WytLN3imokRq79_IkQMb-149" value="" style="endArrow=classic;html=1;rounded=0;exitX=1;exitY=0.5;exitDx=0;exitDy=0;entryX=0;entryY=0.5;entryDx=0;entryDy=0;" parent="WytLN3imokRq79_IkQMb-2" source="WytLN3imokRq79_IkQMb-147" target="WytLN3imokRq79_IkQMb-152" edge="1">
          <mxGeometry width="50" height="50" relative="1" as="geometry">
            <mxPoint x="270" y="2030" as="sourcePoint" />
            <mxPoint x="350" y="2220" as="targetPoint" />
          </mxGeometry>
        </mxCell>
        <mxCell id="WytLN3imokRq79_IkQMb-159" value="" style="endArrow=classic;html=1;rounded=0;exitX=0;exitY=0.5;exitDx=0;exitDy=0;entryX=0;entryY=0.25;entryDx=0;entryDy=0;edgeStyle=orthogonalEdgeStyle;" parent="WytLN3imokRq79_IkQMb-2" source="WytLN3imokRq79_IkQMb-123" target="WytLN3imokRq79_IkQMb-158" edge="1">
          <mxGeometry width="50" height="50" relative="1" as="geometry">
            <mxPoint x="280" y="1890" as="sourcePoint" />
            <mxPoint x="330" y="1840" as="targetPoint" />
            <Array as="points">
              <mxPoint x="100" y="1820" />
              <mxPoint x="40" y="1820" />
              <mxPoint x="40" y="2321" />
            </Array>
          </mxGeometry>
        </mxCell>
        <mxCell id="WytLN3imokRq79_IkQMb-160" value="" style="endArrow=classic;html=1;rounded=0;exitX=0;exitY=0.5;exitDx=0;exitDy=0;entryX=0;entryY=0.5;entryDx=0;entryDy=0;edgeStyle=orthogonalEdgeStyle;" parent="WytLN3imokRq79_IkQMb-2" source="WytLN3imokRq79_IkQMb-82" target="WytLN3imokRq79_IkQMb-158" edge="1">
          <mxGeometry width="50" height="50" relative="1" as="geometry">
            <mxPoint x="280" y="1850" as="sourcePoint" />
            <mxPoint x="330" y="1800" as="targetPoint" />
            <Array as="points">
              <mxPoint x="100" y="1280" />
              <mxPoint x="30" y="1280" />
              <mxPoint x="30" y="2338" />
            </Array>
          </mxGeometry>
        </mxCell>
        <mxCell id="WytLN3imokRq79_IkQMb-161" value="" style="endArrow=classic;html=1;rounded=0;exitX=0;exitY=0.25;exitDx=0;exitDy=0;entryX=0;entryY=0.75;entryDx=0;entryDy=0;edgeStyle=orthogonalEdgeStyle;" parent="WytLN3imokRq79_IkQMb-2" source="WytLN3imokRq79_IkQMb-28" target="WytLN3imokRq79_IkQMb-158" edge="1">
          <mxGeometry width="50" height="50" relative="1" as="geometry">
            <mxPoint x="280" y="910" as="sourcePoint" />
            <mxPoint x="330" y="860" as="targetPoint" />
            <Array as="points">
              <mxPoint x="100" y="695" />
              <mxPoint x="20" y="695" />
              <mxPoint x="20" y="2355" />
            </Array>
          </mxGeometry>
        </mxCell>
        <mxCell id="WytLN3imokRq79_IkQMb-5" value="launch app" style="rounded=1;whiteSpace=wrap;html=1;" parent="WytLN3imokRq79_IkQMb-2" vertex="1">
          <mxGeometry x="100" y="30" width="120" height="60" as="geometry" />
        </mxCell>
        <mxCell id="WytLN3imokRq79_IkQMb-7" value="Have Account?" style="shape=hexagon;perimeter=hexagonPerimeter2;whiteSpace=wrap;html=1;fixedSize=1;" parent="WytLN3imokRq79_IkQMb-2" vertex="1">
          <mxGeometry x="100" y="130" width="120" height="50" as="geometry" />
        </mxCell>
        <mxCell id="WytLN3imokRq79_IkQMb-6" value="" style="endArrow=classic;html=1;rounded=0;exitX=0.5;exitY=1;exitDx=0;exitDy=0;" parent="WytLN3imokRq79_IkQMb-2" source="WytLN3imokRq79_IkQMb-5" target="WytLN3imokRq79_IkQMb-7" edge="1">
          <mxGeometry width="50" height="50" relative="1" as="geometry">
            <mxPoint x="290" y="390" as="sourcePoint" />
            <mxPoint x="160" y="140" as="targetPoint" />
          </mxGeometry>
        </mxCell>
        <mxCell id="WytLN3imokRq79_IkQMb-13" value="" style="rhombus;whiteSpace=wrap;html=1;" parent="WytLN3imokRq79_IkQMb-2" vertex="1">
          <mxGeometry x="140" y="220" width="40" height="40" as="geometry" />
        </mxCell>
        <mxCell id="WytLN3imokRq79_IkQMb-14" value="" style="endArrow=classic;html=1;rounded=0;exitX=0.5;exitY=1;exitDx=0;exitDy=0;entryX=0.5;entryY=0;entryDx=0;entryDy=0;" parent="WytLN3imokRq79_IkQMb-2" source="WytLN3imokRq79_IkQMb-7" target="WytLN3imokRq79_IkQMb-13" edge="1">
          <mxGeometry width="50" height="50" relative="1" as="geometry">
            <mxPoint x="230" y="390" as="sourcePoint" />
            <mxPoint x="280" y="340" as="targetPoint" />
          </mxGeometry>
        </mxCell>
        <mxCell id="WytLN3imokRq79_IkQMb-15" value="Logged in?" style="shape=hexagon;perimeter=hexagonPerimeter2;whiteSpace=wrap;html=1;fixedSize=1;" parent="WytLN3imokRq79_IkQMb-2" vertex="1">
          <mxGeometry x="100" y="300" width="120" height="50" as="geometry" />
        </mxCell>
        <mxCell id="WytLN3imokRq79_IkQMb-16" value="" style="endArrow=classic;html=1;rounded=0;exitX=0.5;exitY=1;exitDx=0;exitDy=0;entryX=0.5;entryY=0;entryDx=0;entryDy=0;" parent="WytLN3imokRq79_IkQMb-2" source="WytLN3imokRq79_IkQMb-13" target="WytLN3imokRq79_IkQMb-15" edge="1">
          <mxGeometry width="50" height="50" relative="1" as="geometry">
            <mxPoint x="200" y="260" as="sourcePoint" />
            <mxPoint x="250" y="210" as="targetPoint" />
          </mxGeometry>
        </mxCell>
        <mxCell id="WytLN3imokRq79_IkQMb-18" value="Input Password and UserID" style="rounded=1;whiteSpace=wrap;html=1;" parent="WytLN3imokRq79_IkQMb-2" vertex="1">
          <mxGeometry x="100" y="390" width="120" height="60" as="geometry" />
        </mxCell>
        <mxCell id="WytLN3imokRq79_IkQMb-19" value="" style="endArrow=classic;html=1;rounded=0;exitX=0.5;exitY=1;exitDx=0;exitDy=0;" parent="WytLN3imokRq79_IkQMb-2" source="WytLN3imokRq79_IkQMb-15" target="WytLN3imokRq79_IkQMb-18" edge="1">
          <mxGeometry width="50" height="50" relative="1" as="geometry">
            <mxPoint x="200" y="260" as="sourcePoint" />
            <mxPoint x="250" y="210" as="targetPoint" />
          </mxGeometry>
        </mxCell>
        <mxCell id="WytLN3imokRq79_IkQMb-20" value="Forgot Password?" style="shape=hexagon;perimeter=hexagonPerimeter2;whiteSpace=wrap;html=1;fixedSize=1;" parent="WytLN3imokRq79_IkQMb-2" vertex="1">
          <mxGeometry x="100" y="490" width="120" height="50" as="geometry" />
        </mxCell>
        <mxCell id="WytLN3imokRq79_IkQMb-21" value="" style="endArrow=classic;html=1;rounded=0;exitX=0.5;exitY=1;exitDx=0;exitDy=0;entryX=0.5;entryY=0;entryDx=0;entryDy=0;" parent="WytLN3imokRq79_IkQMb-2" source="WytLN3imokRq79_IkQMb-18" target="WytLN3imokRq79_IkQMb-20" edge="1">
          <mxGeometry width="50" height="50" relative="1" as="geometry">
            <mxPoint x="200" y="370" as="sourcePoint" />
            <mxPoint x="250" y="320" as="targetPoint" />
          </mxGeometry>
        </mxCell>
        <mxCell id="WytLN3imokRq79_IkQMb-25" value="" style="rhombus;whiteSpace=wrap;html=1;" parent="WytLN3imokRq79_IkQMb-2" vertex="1">
          <mxGeometry x="140" y="580" width="40" height="40" as="geometry" />
        </mxCell>
        <mxCell id="WytLN3imokRq79_IkQMb-26" value="" style="endArrow=classic;html=1;rounded=0;exitX=0.5;exitY=1;exitDx=0;exitDy=0;entryX=0.5;entryY=0;entryDx=0;entryDy=0;" parent="WytLN3imokRq79_IkQMb-2" source="WytLN3imokRq79_IkQMb-20" target="WytLN3imokRq79_IkQMb-25" edge="1">
          <mxGeometry width="50" height="50" relative="1" as="geometry">
            <mxPoint x="210" y="320" as="sourcePoint" />
            <mxPoint x="260" y="270" as="targetPoint" />
          </mxGeometry>
        </mxCell>
        <mxCell id="WytLN3imokRq79_IkQMb-27" value="" style="endArrow=classic;html=1;rounded=0;exitX=0;exitY=0.5;exitDx=0;exitDy=0;entryX=0;entryY=0.5;entryDx=0;entryDy=0;edgeStyle=orthogonalEdgeStyle;" parent="WytLN3imokRq79_IkQMb-2" source="WytLN3imokRq79_IkQMb-15" target="WytLN3imokRq79_IkQMb-25" edge="1">
          <mxGeometry width="50" height="50" relative="1" as="geometry">
            <mxPoint x="210" y="420" as="sourcePoint" />
            <mxPoint x="260" y="370" as="targetPoint" />
            <Array as="points">
              <mxPoint x="60" y="325" />
              <mxPoint x="60" y="600" />
            </Array>
          </mxGeometry>
        </mxCell>
        <mxCell id="WytLN3imokRq79_IkQMb-28" value="View HomePage" style="rounded=1;whiteSpace=wrap;html=1;" parent="WytLN3imokRq79_IkQMb-2" vertex="1">
          <mxGeometry x="100" y="670" width="120" height="60" as="geometry" />
        </mxCell>
        <mxCell id="WytLN3imokRq79_IkQMb-29" value="" style="endArrow=classic;html=1;rounded=0;exitX=0.5;exitY=1;exitDx=0;exitDy=0;entryX=0.5;entryY=0;entryDx=0;entryDy=0;" parent="WytLN3imokRq79_IkQMb-2" source="WytLN3imokRq79_IkQMb-25" target="WytLN3imokRq79_IkQMb-28" edge="1">
          <mxGeometry width="50" height="50" relative="1" as="geometry">
            <mxPoint x="310" y="450" as="sourcePoint" />
            <mxPoint x="360" y="400" as="targetPoint" />
          </mxGeometry>
        </mxCell>
        <mxCell id="WytLN3imokRq79_IkQMb-30" value="change ml?" style="shape=hexagon;perimeter=hexagonPerimeter2;whiteSpace=wrap;html=1;fixedSize=1;" parent="WytLN3imokRq79_IkQMb-2" vertex="1">
          <mxGeometry x="85" y="770" width="150" height="50" as="geometry" />
        </mxCell>
        <mxCell id="WytLN3imokRq79_IkQMb-31" value="yes" style="text;html=1;align=center;verticalAlign=middle;whiteSpace=wrap;rounded=0;" parent="WytLN3imokRq79_IkQMb-2" vertex="1">
          <mxGeometry x="250" y="490" width="60" height="30" as="geometry" />
        </mxCell>
        <mxCell id="WytLN3imokRq79_IkQMb-32" value="no" style="text;html=1;align=center;verticalAlign=middle;whiteSpace=wrap;rounded=0;" parent="WytLN3imokRq79_IkQMb-2" vertex="1">
          <mxGeometry x="145" y="545" width="60" height="30" as="geometry" />
        </mxCell>
        <mxCell id="WytLN3imokRq79_IkQMb-55" value="no" style="text;html=1;align=center;verticalAlign=middle;whiteSpace=wrap;rounded=0;" parent="WytLN3imokRq79_IkQMb-2" vertex="1">
          <mxGeometry x="145" y="350" width="60" height="30" as="geometry" />
        </mxCell>
        <mxCell id="WytLN3imokRq79_IkQMb-56" value="no" style="text;html=1;align=center;verticalAlign=middle;whiteSpace=wrap;rounded=0;" parent="WytLN3imokRq79_IkQMb-2" vertex="1">
          <mxGeometry x="250" y="130" width="60" height="30" as="geometry" />
        </mxCell>
        <mxCell id="WytLN3imokRq79_IkQMb-57" value="yes" style="text;html=1;align=center;verticalAlign=middle;whiteSpace=wrap;rounded=0;" parent="WytLN3imokRq79_IkQMb-2" vertex="1">
          <mxGeometry x="145" y="180" width="60" height="30" as="geometry" />
        </mxCell>
        <mxCell id="WytLN3imokRq79_IkQMb-58" value="" style="endArrow=classic;html=1;rounded=0;exitX=0.5;exitY=1;exitDx=0;exitDy=0;entryX=0.5;entryY=0;entryDx=0;entryDy=0;" parent="WytLN3imokRq79_IkQMb-2" source="WytLN3imokRq79_IkQMb-28" target="WytLN3imokRq79_IkQMb-30" edge="1">
          <mxGeometry width="50" height="50" relative="1" as="geometry">
            <mxPoint x="210" y="690" as="sourcePoint" />
            <mxPoint x="260" y="640" as="targetPoint" />
          </mxGeometry>
        </mxCell>
        <mxCell id="WytLN3imokRq79_IkQMb-62" value="yes" style="text;html=1;align=center;verticalAlign=middle;whiteSpace=wrap;rounded=0;" parent="WytLN3imokRq79_IkQMb-2" vertex="1">
          <mxGeometry x="250" y="770" width="60" height="30" as="geometry" />
        </mxCell>
        <mxCell id="WytLN3imokRq79_IkQMb-63" value="no" style="text;html=1;align=center;verticalAlign=middle;whiteSpace=wrap;rounded=0;" parent="WytLN3imokRq79_IkQMb-2" vertex="1">
          <mxGeometry x="145" y="830" width="60" height="30" as="geometry" />
        </mxCell>
        <mxCell id="WytLN3imokRq79_IkQMb-68" value="record ml?" style="shape=hexagon;perimeter=hexagonPerimeter2;whiteSpace=wrap;html=1;fixedSize=1;" parent="WytLN3imokRq79_IkQMb-2" vertex="1">
          <mxGeometry x="100" y="870" width="120" height="50" as="geometry" />
        </mxCell>
        <mxCell id="WytLN3imokRq79_IkQMb-69" value="" style="rhombus;whiteSpace=wrap;html=1;" parent="WytLN3imokRq79_IkQMb-2" vertex="1">
          <mxGeometry x="140" y="1020" width="40" height="40" as="geometry" />
        </mxCell>
        <mxCell id="WytLN3imokRq79_IkQMb-70" value="" style="endArrow=classic;html=1;rounded=0;exitX=0.5;exitY=1;exitDx=0;exitDy=0;entryX=0.5;entryY=0;entryDx=0;entryDy=0;" parent="WytLN3imokRq79_IkQMb-2" source="WytLN3imokRq79_IkQMb-68" target="WytLN3imokRq79_IkQMb-69" edge="1">
          <mxGeometry width="50" height="50" relative="1" as="geometry">
            <mxPoint x="240" y="740" as="sourcePoint" />
            <mxPoint x="290" y="690" as="targetPoint" />
          </mxGeometry>
        </mxCell>
        <mxCell id="WytLN3imokRq79_IkQMb-77" value="yes" style="text;html=1;align=center;verticalAlign=middle;whiteSpace=wrap;rounded=0;" parent="WytLN3imokRq79_IkQMb-2" vertex="1">
          <mxGeometry x="235" y="930" width="60" height="30" as="geometry" />
        </mxCell>
        <mxCell id="WytLN3imokRq79_IkQMb-79" value="no" style="text;html=1;align=center;verticalAlign=middle;whiteSpace=wrap;rounded=0;" parent="WytLN3imokRq79_IkQMb-2" vertex="1">
          <mxGeometry x="150" y="960" width="60" height="30" as="geometry" />
        </mxCell>
        <mxCell id="WytLN3imokRq79_IkQMb-82" value="View StatisticsPage" style="rounded=1;whiteSpace=wrap;html=1;" parent="WytLN3imokRq79_IkQMb-2" vertex="1">
          <mxGeometry x="100" y="1240" width="120" height="60" as="geometry" />
        </mxCell>
        <mxCell id="WytLN3imokRq79_IkQMb-81" value="" style="endArrow=classic;html=1;rounded=0;exitX=0;exitY=0.75;exitDx=0;exitDy=0;entryX=0;entryY=0.25;entryDx=0;entryDy=0;edgeStyle=orthogonalEdgeStyle;" parent="WytLN3imokRq79_IkQMb-2" source="WytLN3imokRq79_IkQMb-28" target="WytLN3imokRq79_IkQMb-109" edge="1">
          <mxGeometry width="50" height="50" relative="1" as="geometry">
            <mxPoint x="330" y="980" as="sourcePoint" />
            <mxPoint x="90" y="1210" as="targetPoint" />
            <Array as="points">
              <mxPoint x="60" y="715" />
              <mxPoint x="60" y="1114" />
            </Array>
          </mxGeometry>
        </mxCell>
        <mxCell id="WytLN3imokRq79_IkQMb-86" value="View Weekly?" style="shape=hexagon;perimeter=hexagonPerimeter2;whiteSpace=wrap;html=1;fixedSize=1;" parent="WytLN3imokRq79_IkQMb-2" vertex="1">
          <mxGeometry x="100" y="1380" width="120" height="40" as="geometry" />
        </mxCell>
        <mxCell id="WytLN3imokRq79_IkQMb-85" value="View Monthly" style="shape=hexagon;perimeter=hexagonPerimeter2;whiteSpace=wrap;html=1;fixedSize=1;" parent="WytLN3imokRq79_IkQMb-2" vertex="1">
          <mxGeometry x="100" y="1450" width="120" height="40" as="geometry" />
        </mxCell>
        <mxCell id="WytLN3imokRq79_IkQMb-84" value="View Yearly" style="shape=hexagon;perimeter=hexagonPerimeter2;whiteSpace=wrap;html=1;fixedSize=1;" parent="WytLN3imokRq79_IkQMb-2" vertex="1">
          <mxGeometry x="100" y="1520" width="120" height="40" as="geometry" />
        </mxCell>
        <mxCell id="WytLN3imokRq79_IkQMb-87" value="" style="endArrow=classic;html=1;rounded=0;exitX=0.75;exitY=1;exitDx=0;exitDy=0;entryX=0;entryY=0.5;entryDx=0;entryDy=0;edgeStyle=orthogonalEdgeStyle;" parent="WytLN3imokRq79_IkQMb-2" source="WytLN3imokRq79_IkQMb-82" target="WytLN3imokRq79_IkQMb-86" edge="1">
          <mxGeometry width="50" height="50" relative="1" as="geometry">
            <mxPoint x="190" y="1310" as="sourcePoint" />
            <mxPoint x="380" y="1080" as="targetPoint" />
            <Array as="points">
              <mxPoint x="190" y="1330" />
              <mxPoint x="90" y="1330" />
              <mxPoint x="90" y="1400" />
            </Array>
          </mxGeometry>
        </mxCell>
        <mxCell id="WytLN3imokRq79_IkQMb-89" value="" style="endArrow=classic;html=1;rounded=0;exitX=0.5;exitY=1;exitDx=0;exitDy=0;entryX=0;entryY=0.5;entryDx=0;entryDy=0;edgeStyle=orthogonalEdgeStyle;" parent="WytLN3imokRq79_IkQMb-2" source="WytLN3imokRq79_IkQMb-82" target="WytLN3imokRq79_IkQMb-85" edge="1">
          <mxGeometry width="50" height="50" relative="1" as="geometry">
            <mxPoint x="330" y="1010" as="sourcePoint" />
            <mxPoint x="380" y="960" as="targetPoint" />
            <Array as="points">
              <mxPoint x="160" y="1320" />
              <mxPoint x="80" y="1320" />
              <mxPoint x="80" y="1470" />
            </Array>
          </mxGeometry>
        </mxCell>
        <mxCell id="WytLN3imokRq79_IkQMb-91" value="" style="endArrow=classic;html=1;rounded=0;exitX=0.25;exitY=1;exitDx=0;exitDy=0;entryX=0;entryY=0.5;entryDx=0;entryDy=0;edgeStyle=orthogonalEdgeStyle;" parent="WytLN3imokRq79_IkQMb-2" source="WytLN3imokRq79_IkQMb-82" target="WytLN3imokRq79_IkQMb-84" edge="1">
          <mxGeometry width="50" height="50" relative="1" as="geometry">
            <mxPoint x="330" y="1010" as="sourcePoint" />
            <mxPoint x="380" y="960" as="targetPoint" />
            <Array as="points">
              <mxPoint x="130" y="1310" />
              <mxPoint x="70" y="1310" />
              <mxPoint x="70" y="1540" />
            </Array>
          </mxGeometry>
        </mxCell>
        <mxCell id="WytLN3imokRq79_IkQMb-102" value="" style="endArrow=classic;html=1;rounded=0;exitX=0.5;exitY=1;exitDx=0;exitDy=0;entryX=0.5;entryY=0;entryDx=0;entryDy=0;" parent="WytLN3imokRq79_IkQMb-2" source="WytLN3imokRq79_IkQMb-86" target="WytLN3imokRq79_IkQMb-85" edge="1">
          <mxGeometry width="50" height="50" relative="1" as="geometry">
            <mxPoint x="350" y="1220" as="sourcePoint" />
            <mxPoint x="400" y="1170" as="targetPoint" />
          </mxGeometry>
        </mxCell>
        <mxCell id="WytLN3imokRq79_IkQMb-103" value="" style="endArrow=classic;html=1;rounded=0;exitX=0.5;exitY=1;exitDx=0;exitDy=0;entryX=0.5;entryY=0;entryDx=0;entryDy=0;" parent="WytLN3imokRq79_IkQMb-2" source="WytLN3imokRq79_IkQMb-85" target="WytLN3imokRq79_IkQMb-84" edge="1">
          <mxGeometry width="50" height="50" relative="1" as="geometry">
            <mxPoint x="350" y="1220" as="sourcePoint" />
            <mxPoint x="400" y="1170" as="targetPoint" />
          </mxGeometry>
        </mxCell>
        <mxCell id="WytLN3imokRq79_IkQMb-105" value="" style="rhombus;whiteSpace=wrap;html=1;" parent="WytLN3imokRq79_IkQMb-2" vertex="1">
          <mxGeometry x="140" y="1610" width="40" height="40" as="geometry" />
        </mxCell>
        <mxCell id="WytLN3imokRq79_IkQMb-106" value="" style="endArrow=classic;html=1;rounded=0;exitX=0.5;exitY=1;exitDx=0;exitDy=0;entryX=0.5;entryY=0;entryDx=0;entryDy=0;" parent="WytLN3imokRq79_IkQMb-2" source="WytLN3imokRq79_IkQMb-84" target="WytLN3imokRq79_IkQMb-105" edge="1">
          <mxGeometry width="50" height="50" relative="1" as="geometry">
            <mxPoint x="350" y="1220" as="sourcePoint" />
            <mxPoint x="400" y="1170" as="targetPoint" />
          </mxGeometry>
        </mxCell>
        <mxCell id="WytLN3imokRq79_IkQMb-109" value="View StatisticPage?" style="shape=hexagon;perimeter=hexagonPerimeter2;whiteSpace=wrap;html=1;fixedSize=1;" parent="WytLN3imokRq79_IkQMb-2" vertex="1">
          <mxGeometry x="100" y="1100" width="120" height="50" as="geometry" />
        </mxCell>
        <mxCell id="WytLN3imokRq79_IkQMb-110" value="" style="endArrow=classic;html=1;rounded=0;exitX=0.5;exitY=1;exitDx=0;exitDy=0;entryX=0.5;entryY=0;entryDx=0;entryDy=0;" parent="WytLN3imokRq79_IkQMb-2" source="WytLN3imokRq79_IkQMb-109" target="WytLN3imokRq79_IkQMb-82" edge="1">
          <mxGeometry width="50" height="50" relative="1" as="geometry">
            <mxPoint x="350" y="1330" as="sourcePoint" />
            <mxPoint x="400" y="1280" as="targetPoint" />
          </mxGeometry>
        </mxCell>
        <mxCell id="WytLN3imokRq79_IkQMb-111" value="yes" style="text;html=1;align=center;verticalAlign=middle;whiteSpace=wrap;rounded=0;" parent="WytLN3imokRq79_IkQMb-2" vertex="1">
          <mxGeometry x="145" y="1170" width="60" height="30" as="geometry" />
        </mxCell>
        <mxCell id="WytLN3imokRq79_IkQMb-113" value="yes" style="text;html=1;align=center;verticalAlign=middle;whiteSpace=wrap;rounded=0;" parent="WytLN3imokRq79_IkQMb-2" vertex="1">
          <mxGeometry x="270" y="1370" width="60" height="30" as="geometry" />
        </mxCell>
        <mxCell id="WytLN3imokRq79_IkQMb-114" value="yes" style="text;html=1;align=center;verticalAlign=middle;whiteSpace=wrap;rounded=0;" parent="WytLN3imokRq79_IkQMb-2" vertex="1">
          <mxGeometry x="270" y="1440" width="60" height="30" as="geometry" />
        </mxCell>
        <mxCell id="WytLN3imokRq79_IkQMb-115" value="yes" style="text;html=1;align=center;verticalAlign=middle;whiteSpace=wrap;rounded=0;" parent="WytLN3imokRq79_IkQMb-2" vertex="1">
          <mxGeometry x="270" y="1510" width="60" height="30" as="geometry" />
        </mxCell>
        <mxCell id="WytLN3imokRq79_IkQMb-116" value="no" style="text;html=1;align=center;verticalAlign=middle;whiteSpace=wrap;rounded=0;" parent="WytLN3imokRq79_IkQMb-2" vertex="1">
          <mxGeometry x="140" y="1420" width="60" height="30" as="geometry" />
        </mxCell>
        <mxCell id="WytLN3imokRq79_IkQMb-117" value="no" style="text;html=1;align=center;verticalAlign=middle;whiteSpace=wrap;rounded=0;" parent="WytLN3imokRq79_IkQMb-2" vertex="1">
          <mxGeometry x="140" y="1490" width="60" height="30" as="geometry" />
        </mxCell>
        <mxCell id="WytLN3imokRq79_IkQMb-118" value="no" style="text;html=1;align=center;verticalAlign=middle;whiteSpace=wrap;rounded=0;" parent="WytLN3imokRq79_IkQMb-2" vertex="1">
          <mxGeometry x="145" y="1570" width="65" height="30" as="geometry" />
        </mxCell>
        <mxCell id="WytLN3imokRq79_IkQMb-119" value="View ProfilePage?" style="shape=hexagon;perimeter=hexagonPerimeter2;whiteSpace=wrap;html=1;fixedSize=1;" parent="WytLN3imokRq79_IkQMb-2" vertex="1">
          <mxGeometry x="100" y="1674" width="120" height="46" as="geometry" />
        </mxCell>
        <mxCell id="WytLN3imokRq79_IkQMb-120" value="" style="endArrow=classic;html=1;rounded=0;exitX=0;exitY=0.75;exitDx=0;exitDy=0;entryX=0;entryY=0.25;entryDx=0;entryDy=0;edgeStyle=orthogonalEdgeStyle;" parent="WytLN3imokRq79_IkQMb-2" source="WytLN3imokRq79_IkQMb-109" target="WytLN3imokRq79_IkQMb-119" edge="1">
          <mxGeometry width="50" height="50" relative="1" as="geometry">
            <mxPoint x="220" y="1290" as="sourcePoint" />
            <mxPoint x="270" y="1240" as="targetPoint" />
            <Array as="points">
              <mxPoint x="60" y="1136" />
              <mxPoint x="60" y="1687" />
            </Array>
          </mxGeometry>
        </mxCell>
        <mxCell id="WytLN3imokRq79_IkQMb-123" value="View ProfilePage" style="rounded=1;whiteSpace=wrap;html=1;" parent="WytLN3imokRq79_IkQMb-2" vertex="1">
          <mxGeometry x="100" y="1780" width="120" height="60" as="geometry" />
        </mxCell>
        <mxCell id="WytLN3imokRq79_IkQMb-124" value="" style="endArrow=classic;html=1;rounded=0;exitX=0.5;exitY=1;exitDx=0;exitDy=0;entryX=0.5;entryY=0;entryDx=0;entryDy=0;" parent="WytLN3imokRq79_IkQMb-2" source="WytLN3imokRq79_IkQMb-119" target="WytLN3imokRq79_IkQMb-123" edge="1">
          <mxGeometry width="50" height="50" relative="1" as="geometry">
            <mxPoint x="210" y="1720" as="sourcePoint" />
            <mxPoint x="260" y="1670" as="targetPoint" />
          </mxGeometry>
        </mxCell>
        <mxCell id="WytLN3imokRq79_IkQMb-125" value="yes" style="text;html=1;align=center;verticalAlign=middle;whiteSpace=wrap;rounded=0;" parent="WytLN3imokRq79_IkQMb-2" vertex="1">
          <mxGeometry x="150" y="1730" width="60" height="30" as="geometry" />
        </mxCell>
        <mxCell id="WytLN3imokRq79_IkQMb-126" value="change user info?" style="shape=hexagon;perimeter=hexagonPerimeter2;whiteSpace=wrap;html=1;fixedSize=1;" parent="WytLN3imokRq79_IkQMb-2" vertex="1">
          <mxGeometry x="85" y="1890" width="150" height="50" as="geometry" />
        </mxCell>
        <mxCell id="WytLN3imokRq79_IkQMb-127" value="" style="endArrow=classic;html=1;rounded=0;exitX=0.5;exitY=1;exitDx=0;exitDy=0;entryX=0.5;entryY=0;entryDx=0;entryDy=0;" parent="WytLN3imokRq79_IkQMb-2" source="WytLN3imokRq79_IkQMb-123" target="WytLN3imokRq79_IkQMb-126" edge="1">
          <mxGeometry width="50" height="50" relative="1" as="geometry">
            <mxPoint x="370" y="1730" as="sourcePoint" />
            <mxPoint x="420" y="1680" as="targetPoint" />
          </mxGeometry>
        </mxCell>
        <mxCell id="WytLN3imokRq79_IkQMb-130" value="yes" style="text;html=1;align=center;verticalAlign=middle;whiteSpace=wrap;rounded=0;" parent="WytLN3imokRq79_IkQMb-2" vertex="1">
          <mxGeometry x="270" y="1890" width="60" height="30" as="geometry" />
        </mxCell>
        <mxCell id="WytLN3imokRq79_IkQMb-134" value="set hydration reminders" style="shape=hexagon;perimeter=hexagonPerimeter2;whiteSpace=wrap;html=1;fixedSize=1;" parent="WytLN3imokRq79_IkQMb-2" vertex="1">
          <mxGeometry x="100" y="1990" width="120" height="50" as="geometry" />
        </mxCell>
        <mxCell id="WytLN3imokRq79_IkQMb-133" value="" style="endArrow=classic;html=1;rounded=0;exitX=0.5;exitY=1;exitDx=0;exitDy=0;" parent="WytLN3imokRq79_IkQMb-2" source="WytLN3imokRq79_IkQMb-126" target="WytLN3imokRq79_IkQMb-134" edge="1">
          <mxGeometry width="50" height="50" relative="1" as="geometry">
            <mxPoint x="370" y="1960" as="sourcePoint" />
            <mxPoint x="160" y="2000" as="targetPoint" />
          </mxGeometry>
        </mxCell>
        <mxCell id="WytLN3imokRq79_IkQMb-135" value="no" style="text;html=1;align=center;verticalAlign=middle;whiteSpace=wrap;rounded=0;" parent="WytLN3imokRq79_IkQMb-2" vertex="1">
          <mxGeometry x="137.5" y="1950" width="65" height="30" as="geometry" />
        </mxCell>
        <mxCell id="WytLN3imokRq79_IkQMb-140" value="yes" style="text;html=1;align=center;verticalAlign=middle;whiteSpace=wrap;rounded=0;" parent="WytLN3imokRq79_IkQMb-2" vertex="1">
          <mxGeometry x="270" y="1990" width="60" height="30" as="geometry" />
        </mxCell>
        <mxCell id="WytLN3imokRq79_IkQMb-141" value="Display milestones" style="shape=hexagon;perimeter=hexagonPerimeter2;whiteSpace=wrap;html=1;fixedSize=1;" parent="WytLN3imokRq79_IkQMb-2" vertex="1">
          <mxGeometry x="90" y="2090" width="140" height="50" as="geometry" />
        </mxCell>
        <mxCell id="WytLN3imokRq79_IkQMb-144" value="" style="endArrow=classic;html=1;rounded=0;exitX=0.5;exitY=1;exitDx=0;exitDy=0;entryX=0.5;entryY=0;entryDx=0;entryDy=0;" parent="WytLN3imokRq79_IkQMb-2" source="WytLN3imokRq79_IkQMb-134" target="WytLN3imokRq79_IkQMb-141" edge="1">
          <mxGeometry width="50" height="50" relative="1" as="geometry">
            <mxPoint x="300" y="1960" as="sourcePoint" />
            <mxPoint x="350" y="1910" as="targetPoint" />
          </mxGeometry>
        </mxCell>
        <mxCell id="WytLN3imokRq79_IkQMb-145" value="no" style="text;html=1;align=center;verticalAlign=middle;whiteSpace=wrap;rounded=0;" parent="WytLN3imokRq79_IkQMb-2" vertex="1">
          <mxGeometry x="140" y="2050" width="65" height="30" as="geometry" />
        </mxCell>
        <mxCell id="WytLN3imokRq79_IkQMb-147" value="Display milestones" style="rounded=1;whiteSpace=wrap;html=1;" parent="WytLN3imokRq79_IkQMb-2" vertex="1">
          <mxGeometry x="100" y="2180" width="120" height="60" as="geometry" />
        </mxCell>
        <mxCell id="WytLN3imokRq79_IkQMb-146" value="" style="endArrow=classic;html=1;rounded=0;exitX=0.5;exitY=1;exitDx=0;exitDy=0;" parent="WytLN3imokRq79_IkQMb-2" source="WytLN3imokRq79_IkQMb-141" target="WytLN3imokRq79_IkQMb-147" edge="1">
          <mxGeometry width="50" height="50" relative="1" as="geometry">
            <mxPoint x="300" y="2020" as="sourcePoint" />
            <mxPoint x="160" y="2190" as="targetPoint" />
          </mxGeometry>
        </mxCell>
        <mxCell id="WytLN3imokRq79_IkQMb-148" value="yes" style="text;html=1;align=center;verticalAlign=middle;whiteSpace=wrap;rounded=0;" parent="WytLN3imokRq79_IkQMb-2" vertex="1">
          <mxGeometry x="142.5" y="2140" width="60" height="30" as="geometry" />
        </mxCell>
        <mxCell id="WytLN3imokRq79_IkQMb-155" value="" style="rhombus;whiteSpace=wrap;html=1;" parent="WytLN3imokRq79_IkQMb-2" vertex="1">
          <mxGeometry x="270" y="2095" width="40" height="40" as="geometry" />
        </mxCell>
        <mxCell id="WytLN3imokRq79_IkQMb-156" value="" style="endArrow=classic;html=1;rounded=0;exitX=1;exitY=0.5;exitDx=0;exitDy=0;entryX=0;entryY=0.5;entryDx=0;entryDy=0;" parent="WytLN3imokRq79_IkQMb-2" source="WytLN3imokRq79_IkQMb-141" target="WytLN3imokRq79_IkQMb-155" edge="1">
          <mxGeometry width="50" height="50" relative="1" as="geometry">
            <mxPoint x="310" y="1840" as="sourcePoint" />
            <mxPoint x="360" y="1790" as="targetPoint" />
          </mxGeometry>
        </mxCell>
        <mxCell id="WytLN3imokRq79_IkQMb-157" value="yes" style="text;html=1;align=center;verticalAlign=middle;whiteSpace=wrap;rounded=0;" parent="WytLN3imokRq79_IkQMb-2" vertex="1">
          <mxGeometry x="220" y="2090" width="60" height="30" as="geometry" />
        </mxCell>
        <mxCell id="WytLN3imokRq79_IkQMb-158" value="Logout?" style="shape=hexagon;perimeter=hexagonPerimeter2;whiteSpace=wrap;html=1;fixedSize=1;" parent="WytLN3imokRq79_IkQMb-2" vertex="1">
          <mxGeometry x="100" y="2298" width="120" height="80" as="geometry" />
        </mxCell>
        <mxCell id="WytLN3imokRq79_IkQMb-61" value="" style="endArrow=classic;html=1;rounded=0;exitX=0.5;exitY=1;exitDx=0;exitDy=0;" parent="WytLN3imokRq79_IkQMb-2" source="WytLN3imokRq79_IkQMb-30" edge="1">
          <mxGeometry width="50" height="50" relative="1" as="geometry">
            <mxPoint x="400" y="780" as="sourcePoint" />
            <mxPoint x="320" y="870" as="targetPoint" />
          </mxGeometry>
        </mxCell>
        <mxCell id="WytLN3imokRq79_IkQMb-164" value="Logout" style="rounded=1;whiteSpace=wrap;html=1;" parent="WytLN3imokRq79_IkQMb-2" vertex="1">
          <mxGeometry x="100" y="2440" width="120" height="60" as="geometry" />
        </mxCell>
        <mxCell id="WytLN3imokRq79_IkQMb-163" value="" style="endArrow=classic;html=1;rounded=0;exitX=0.5;exitY=1;exitDx=0;exitDy=0;entryX=0.5;entryY=0;entryDx=0;entryDy=0;" parent="WytLN3imokRq79_IkQMb-2" source="WytLN3imokRq79_IkQMb-158" target="WytLN3imokRq79_IkQMb-164" edge="1">
          <mxGeometry width="50" height="50" relative="1" as="geometry">
            <mxPoint x="160" y="2380" as="sourcePoint" />
            <mxPoint x="160" y="2430" as="targetPoint" />
          </mxGeometry>
        </mxCell>
        <mxCell id="WytLN3imokRq79_IkQMb-167" value="" style="endArrow=classic;html=1;rounded=0;exitX=1;exitY=0.5;exitDx=0;exitDy=0;entryX=0;entryY=0.5;entryDx=0;entryDy=0;" parent="WytLN3imokRq79_IkQMb-2" source="WytLN3imokRq79_IkQMb-164" target="WytLN3imokRq79_IkQMb-166" edge="1">
          <mxGeometry width="50" height="50" relative="1" as="geometry">
            <mxPoint x="230" y="2480" as="sourcePoint" />
            <mxPoint x="700" y="2000" as="targetPoint" />
          </mxGeometry>
        </mxCell>
        <mxCell id="WytLN3imokRq79_IkQMb-168" value="yes" style="text;html=1;align=center;verticalAlign=middle;whiteSpace=wrap;rounded=0;" parent="WytLN3imokRq79_IkQMb-2" vertex="1">
          <mxGeometry x="150" y="2400" width="60" height="30" as="geometry" />
        </mxCell>
        <mxCell id="WytLN3imokRq79_IkQMb-169" value="" style="rhombus;whiteSpace=wrap;html=1;" parent="WytLN3imokRq79_IkQMb-2" vertex="1">
          <mxGeometry x="270" y="2318" width="40" height="40" as="geometry" />
        </mxCell>
        <mxCell id="WytLN3imokRq79_IkQMb-170" value="" style="endArrow=classic;html=1;rounded=0;exitX=1;exitY=0.5;exitDx=0;exitDy=0;entryX=0;entryY=0.5;entryDx=0;entryDy=0;" parent="WytLN3imokRq79_IkQMb-2" source="WytLN3imokRq79_IkQMb-158" target="WytLN3imokRq79_IkQMb-169" edge="1">
          <mxGeometry width="50" height="50" relative="1" as="geometry">
            <mxPoint x="650" y="2000" as="sourcePoint" />
            <mxPoint x="700" y="1950" as="targetPoint" />
          </mxGeometry>
        </mxCell>
        <mxCell id="WytLN3imokRq79_IkQMb-171" value="no" style="text;html=1;align=center;verticalAlign=middle;whiteSpace=wrap;rounded=0;" parent="WytLN3imokRq79_IkQMb-2" vertex="1">
          <mxGeometry x="210" y="2318" width="65" height="30" as="geometry" />
        </mxCell>
        <mxCell id="WytLN3imokRq79_IkQMb-4" value="firebase" style="swimlane;startSize=20;html=1;" parent="WytLN3imokRq79_IkQMb-1" vertex="1">
          <mxGeometry x="670" y="20" width="150" height="2560" as="geometry" />
        </mxCell>
        <mxCell id="WytLN3imokRq79_IkQMb-11" value="save to firebase" style="shape=datastore;whiteSpace=wrap;html=1;" parent="WytLN3imokRq79_IkQMb-4" vertex="1">
          <mxGeometry x="50" y="125" width="60" height="60" as="geometry" />
        </mxCell>
        <mxCell id="WytLN3imokRq79_IkQMb-24" value="save to firebase" style="shape=datastore;whiteSpace=wrap;html=1;" parent="WytLN3imokRq79_IkQMb-4" vertex="1">
          <mxGeometry x="50" y="485" width="60" height="60" as="geometry" />
        </mxCell>
        <mxCell id="WytLN3imokRq79_IkQMb-73" value="save to firebase" style="shape=datastore;whiteSpace=wrap;html=1;" parent="WytLN3imokRq79_IkQMb-4" vertex="1">
          <mxGeometry x="50" y="960" width="60" height="60" as="geometry" />
        </mxCell>
        <mxCell id="WytLN3imokRq79_IkQMb-96" value="get firebase" style="shape=datastore;whiteSpace=wrap;html=1;" parent="WytLN3imokRq79_IkQMb-4" vertex="1">
          <mxGeometry x="50" y="1450" width="60" height="60" as="geometry" />
        </mxCell>
        <mxCell id="WytLN3imokRq79_IkQMb-131" value="save to firebase" style="shape=datastore;whiteSpace=wrap;html=1;" parent="WytLN3imokRq79_IkQMb-4" vertex="1">
          <mxGeometry x="50" y="1885" width="60" height="60" as="geometry" />
        </mxCell>
        <mxCell id="WytLN3imokRq79_IkQMb-137" value="save to firebase" style="shape=datastore;whiteSpace=wrap;html=1;" parent="WytLN3imokRq79_IkQMb-4" vertex="1">
          <mxGeometry x="50" y="1985" width="60" height="60" as="geometry" />
        </mxCell>
        <mxCell id="WytLN3imokRq79_IkQMb-153" value="get firebase" style="shape=datastore;whiteSpace=wrap;html=1;" parent="WytLN3imokRq79_IkQMb-4" vertex="1">
          <mxGeometry x="50" y="2180" width="60" height="60" as="geometry" />
        </mxCell>
        <mxCell id="WytLN3imokRq79_IkQMb-12" value="" style="endArrow=classic;html=1;rounded=0;exitX=1;exitY=0.5;exitDx=0;exitDy=0;entryX=0;entryY=0.5;entryDx=0;entryDy=0;" parent="WytLN3imokRq79_IkQMb-1" source="WytLN3imokRq79_IkQMb-9" target="WytLN3imokRq79_IkQMb-11" edge="1">
          <mxGeometry width="50" height="50" relative="1" as="geometry">
            <mxPoint x="440" y="420" as="sourcePoint" />
            <mxPoint x="490" y="370" as="targetPoint" />
          </mxGeometry>
        </mxCell>
        <mxCell id="WytLN3imokRq79_IkQMb-22" value="" style="endArrow=classic;html=1;rounded=0;exitX=1;exitY=0.5;exitDx=0;exitDy=0;entryX=0;entryY=0.5;entryDx=0;entryDy=0;" parent="WytLN3imokRq79_IkQMb-1" source="WytLN3imokRq79_IkQMb-17" target="WytLN3imokRq79_IkQMb-24" edge="1">
          <mxGeometry width="50" height="50" relative="1" as="geometry">
            <mxPoint x="170" y="620" as="sourcePoint" />
            <mxPoint x="220" y="570" as="targetPoint" />
          </mxGeometry>
        </mxCell>
        <mxCell id="WytLN3imokRq79_IkQMb-78" value="" style="endArrow=classic;html=1;rounded=0;exitX=1;exitY=0.5;exitDx=0;exitDy=0;entryX=0;entryY=0.5;entryDx=0;entryDy=0;" parent="WytLN3imokRq79_IkQMb-1" source="WytLN3imokRq79_IkQMb-74" target="WytLN3imokRq79_IkQMb-73" edge="1">
          <mxGeometry width="50" height="50" relative="1" as="geometry">
            <mxPoint x="300" y="750" as="sourcePoint" />
            <mxPoint x="350" y="700" as="targetPoint" />
          </mxGeometry>
        </mxCell>
        <mxCell id="WytLN3imokRq79_IkQMb-99" value="" style="endArrow=classic;html=1;rounded=0;exitX=0;exitY=0.5;exitDx=0;exitDy=0;entryX=1;entryY=0.5;entryDx=0;entryDy=0;" parent="WytLN3imokRq79_IkQMb-1" source="WytLN3imokRq79_IkQMb-96" target="WytLN3imokRq79_IkQMb-92" edge="1">
          <mxGeometry width="50" height="50" relative="1" as="geometry">
            <mxPoint x="300" y="1090" as="sourcePoint" />
            <mxPoint x="350" y="1040" as="targetPoint" />
          </mxGeometry>
        </mxCell>
        <mxCell id="WytLN3imokRq79_IkQMb-101" value="" style="endArrow=classic;html=1;rounded=0;exitX=0;exitY=0.5;exitDx=0;exitDy=0;entryX=1;entryY=0.5;entryDx=0;entryDy=0;" parent="WytLN3imokRq79_IkQMb-1" source="WytLN3imokRq79_IkQMb-96" target="WytLN3imokRq79_IkQMb-95" edge="1">
          <mxGeometry width="50" height="50" relative="1" as="geometry">
            <mxPoint x="640" y="1400" as="sourcePoint" />
            <mxPoint x="510" y="1330" as="targetPoint" />
          </mxGeometry>
        </mxCell>
        <mxCell id="WytLN3imokRq79_IkQMb-100" value="" style="endArrow=classic;html=1;rounded=0;entryX=1;entryY=0.5;entryDx=0;entryDy=0;exitX=0;exitY=0.5;exitDx=0;exitDy=0;" parent="WytLN3imokRq79_IkQMb-1" source="WytLN3imokRq79_IkQMb-96" target="WytLN3imokRq79_IkQMb-94" edge="1">
          <mxGeometry width="50" height="50" relative="1" as="geometry">
            <mxPoint x="620" y="1380" as="sourcePoint" />
            <mxPoint x="500" y="1320" as="targetPoint" />
          </mxGeometry>
        </mxCell>
        <mxCell id="WytLN3imokRq79_IkQMb-132" value="" style="endArrow=classic;html=1;rounded=0;exitX=1;exitY=0.5;exitDx=0;exitDy=0;entryX=0;entryY=0.5;entryDx=0;entryDy=0;" parent="WytLN3imokRq79_IkQMb-1" source="WytLN3imokRq79_IkQMb-128" target="WytLN3imokRq79_IkQMb-131" edge="1">
          <mxGeometry width="50" height="50" relative="1" as="geometry">
            <mxPoint x="340" y="1990" as="sourcePoint" />
            <mxPoint x="390" y="1940" as="targetPoint" />
          </mxGeometry>
        </mxCell>
        <mxCell id="WytLN3imokRq79_IkQMb-138" value="" style="endArrow=classic;html=1;rounded=0;exitX=1;exitY=0.5;exitDx=0;exitDy=0;entryX=0;entryY=0.5;entryDx=0;entryDy=0;" parent="WytLN3imokRq79_IkQMb-1" source="WytLN3imokRq79_IkQMb-136" target="WytLN3imokRq79_IkQMb-137" edge="1">
          <mxGeometry width="50" height="50" relative="1" as="geometry">
            <mxPoint x="340" y="2095" as="sourcePoint" />
            <mxPoint x="390" y="2045" as="targetPoint" />
          </mxGeometry>
        </mxCell>
        <mxCell id="WytLN3imokRq79_IkQMb-154" value="" style="endArrow=classic;html=1;rounded=0;exitX=0;exitY=0.5;exitDx=0;exitDy=0;entryX=1;entryY=0.5;entryDx=0;entryDy=0;" parent="WytLN3imokRq79_IkQMb-1" source="WytLN3imokRq79_IkQMb-153" target="WytLN3imokRq79_IkQMb-152" edge="1">
          <mxGeometry width="50" height="50" relative="1" as="geometry">
            <mxPoint x="640" y="2110" as="sourcePoint" />
            <mxPoint x="690" y="2060" as="targetPoint" />
          </mxGeometry>
        </mxCell>
      </root>
    </mxGraphModel>
  </diagram>
</mxfile>
